M48
; DRILL file {KiCad (6.0.5)} date Sat Jul 16 21:46:17 2022
; FORMAT={-:-/ absolute / inch / decimal}
; #@! TF.CreationDate,2022-07-16T21:46:17-05:00
; #@! TF.GenerationSoftware,Kicad,Pcbnew,(6.0.5)
; #@! TF.FileFunction,MixedPlating,1,2
FMAT,2
INCH
; #@! TA.AperFunction,Plated,PTH,ViaDrill
T1C0.0160
; #@! TA.AperFunction,Plated,PTH,ComponentDrill
T2C0.0315
; #@! TA.AperFunction,Plated,PTH,ComponentDrill
T3C0.0354
; #@! TA.AperFunction,Plated,PTH,ComponentDrill
T4C0.0394
; #@! TA.AperFunction,Plated,PTH,ComponentDrill
T5C0.0433
; #@! TA.AperFunction,Plated,PTH,ComponentDrill
T6C0.0472
; #@! TA.AperFunction,Plated,PTH,ComponentDrill
T7C0.0591
; #@! TA.AperFunction,Plated,PTH,ComponentDrill
T8C0.0984
; #@! TA.AperFunction,NonPlated,NPTH,ComponentDrill
T9C0.1260
%
G90
G05
T1
X0.2504Y1.103
X0.2504Y0.8087
X0.2504Y0.6087
X0.2504Y0.4087
X0.4104Y1.005
X0.5204Y1.1687
X0.6504Y3.1087
X1.1504Y2.8087
X1.1504Y1.6087
X1.1593Y1.478
X1.1704Y1.3687
X1.1804Y0.8787
X1.2224Y2.1082
X1.2497Y0.6807
X1.2504Y1.7087
X1.3504Y3.0087
X1.3504Y2.0087
X1.3504Y1.9087
X1.3504Y0.8087
X1.4504Y2.6687
X1.4504Y2.2787
X1.4504Y1.6487
X1.6504Y1.9087
X1.6505Y0.5807
X1.7504Y3.3087
X1.7504Y0.3087
X1.8504Y1.2087
X1.8504Y1.0087
X2.2504Y0.4087
X2.3504Y3.1087
X2.3904Y3.1687
X2.4504Y2.8087
X2.4504Y2.3087
X2.5504Y2.8087
X2.5504Y2.5087
X2.6504Y2.8087
X2.6504Y2.7087
X2.7504Y2.4087
X2.7504Y2.2087
X2.7504Y0.7087
X2.8004Y2.7587
X2.8504Y2.4087
X2.8504Y0.6087
X2.8904Y2.7587
X2.9504Y2.7087
X2.9504Y2.2087
X3.0504Y2.3087
X3.0604Y1.7387
X3.0604Y1.5587
X3.1504Y2.8087
X3.1504Y2.1087
X3.1504Y1.6087
X3.1504Y1.3087
X3.2504Y3.1087
X3.2504Y2.8087
X3.2504Y2.5087
X3.3504Y1.4087
X3.3504Y1.0087
X3.5504Y3.3087
X3.5504Y0.5087
X4.0504Y1.8087
X4.0504Y1.2087
X4.0604Y2.7987
X4.0604Y2.0987
X4.3304Y1.7287
X4.3304Y1.5587
X4.4504Y1.2087
X4.5874Y1.2427
X4.6504Y2.5087
X4.6504Y2.0987
X4.6604Y2.7987
X4.8504Y2.5087
X4.8504Y1.6087
X4.9504Y2.4087
X4.9504Y1.7087
X5.0104Y2.2187
X5.0104Y1.9187
X5.0874Y1.2427
X5.1504Y1.4087
T2
X0.7008Y1.6583
X0.7008Y1.5583
X0.7008Y1.4583
X0.7008Y1.3583
X0.7008Y1.2583
X0.7008Y1.1583
X0.7008Y1.0583
X0.7008Y0.9583
X0.7008Y0.8583
X0.7008Y0.7583
X0.7008Y0.6583
X0.7008Y0.5583
X0.7008Y0.4583
X0.7008Y0.3583
X0.7504Y3.3087
X0.7504Y3.2087
X0.7504Y3.1087
X0.7504Y3.0087
X1.0008Y1.6583
X1.0008Y1.5583
X1.0008Y1.4583
X1.0008Y1.3583
X1.0008Y1.2583
X1.0008Y1.1583
X1.0008Y1.0583
X1.0008Y0.9583
X1.0008Y0.8583
X1.0008Y0.7583
X1.0008Y0.6583
X1.0008Y0.5583
X1.0008Y0.4583
X1.0008Y0.3583
X1.0504Y3.3087
X1.0504Y3.2087
X1.0504Y3.1087
X1.0504Y3.0087
X2.3006Y3.3087
X2.3006Y3.0087
X2.4006Y3.3087
X2.4006Y3.0087
X2.5006Y3.3087
X2.5006Y3.0087
X2.6006Y3.3087
X2.6006Y3.0087
X2.7006Y3.3087
X2.7006Y3.0087
X2.8006Y3.3087
X2.8006Y3.0087
X2.9006Y3.3087
X2.9006Y3.0087
X3.0006Y3.3087
X3.0006Y3.0087
X3.1006Y3.3087
X3.1006Y3.0087
X3.2006Y3.3087
X3.2006Y3.0087
X3.3006Y3.3087
X3.3006Y3.0087
X3.4006Y3.3087
X3.4006Y3.0087
X5.0504Y1.7087
X5.1504Y1.6087
X5.2504Y1.7087
T3
X2.4559Y2.6087
X2.4559Y2.0087
X2.5559Y2.6087
X2.5559Y2.0087
X2.6559Y2.6087
X2.6559Y2.0087
X2.7559Y2.6087
X2.7559Y2.0087
X2.8559Y2.6087
X2.8559Y2.0087
X2.9559Y2.6087
X2.9559Y2.0087
X3.0559Y2.6087
X3.0559Y2.0087
T4
X0.1904Y2.6887
X0.3504Y1.662
X0.3504Y1.4651
X0.5304Y0.2287
X0.5504Y1.2687
X1.4504Y2.0087
X1.4504Y1.9087
X1.4504Y1.8087
X1.5504Y2.0087
X1.5504Y1.9087
X1.5504Y1.8087
X1.6604Y2.2887
X2.1104Y3.1687
X2.1204Y2.8287
X2.6604Y1.6487
X3.3104Y1.7187
X3.4404Y2.8187
X4.3404Y2.7087
X4.3404Y2.0087
X4.9604Y2.7087
X5.1204Y1.9987
X5.1604Y0.7187
X5.2504Y2.7587
X5.2504Y2.6587
X5.2504Y2.5587
X5.2504Y2.4587
X5.2504Y2.3587
X5.2504Y2.2587
T6
X1.5906Y1.4133
X1.6906Y1.4133
X1.7906Y1.4133
X1.8906Y1.4133
X1.9906Y1.4133
X2.0906Y1.4133
X2.1906Y1.4133
X2.2906Y1.4133
X2.3906Y1.4133
X2.4906Y1.4133
X2.5906Y1.4133
X2.6906Y1.4133
X2.7906Y1.4133
X2.8906Y1.4133
X2.9906Y1.4133
X3.0906Y1.4133
T7
X0.6504Y2.7659
X0.6504Y1.9592
T8
X1.3741Y1.4133
X1.3741Y0.1928
X4.3268Y0.1928
X4.3268Y1.4133
T9
X0.1969Y3.3465
X0.1969Y0.1969
X5.315Y3.3465
X5.315Y0.1969
T5
G00X4.6504Y0.6224
M15
G01X4.6504Y0.5949
M16
G05
G00X4.8217Y0.7268
M15
G01X4.8492Y0.7268
M16
G05
G00X4.8217Y0.4906
M15
G01X4.8492Y0.4906
M16
G05
T0
M30
