%TF.GenerationSoftware,KiCad,Pcbnew,(6.0.5)*%
%TF.CreationDate,2022-07-16T21:45:20-05:00*%
%TF.ProjectId,julio_cool_clock,6a756c69-6f5f-4636-9f6f-6c5f636c6f63,rev?*%
%TF.SameCoordinates,PX4c4b400PY8a48640*%
%TF.FileFunction,Legend,Top*%
%TF.FilePolarity,Positive*%
%FSLAX46Y46*%
G04 Gerber Fmt 4.6, Leading zero omitted, Abs format (unit mm)*
G04 Created by KiCad (PCBNEW (6.0.5)) date 2022-07-16 21:45:20*
%MOMM*%
%LPD*%
G01*
G04 APERTURE LIST*
G04 Aperture macros list*
%AMRoundRect*
0 Rectangle with rounded corners*
0 $1 Rounding radius*
0 $2 $3 $4 $5 $6 $7 $8 $9 X,Y pos of 4 corners*
0 Add a 4 corners polygon primitive as box body*
4,1,4,$2,$3,$4,$5,$6,$7,$8,$9,$2,$3,0*
0 Add four circle primitives for the rounded corners*
1,1,$1+$1,$2,$3*
1,1,$1+$1,$4,$5*
1,1,$1+$1,$6,$7*
1,1,$1+$1,$8,$9*
0 Add four rect primitives between the rounded corners*
20,1,$1+$1,$2,$3,$4,$5,0*
20,1,$1+$1,$4,$5,$6,$7,0*
20,1,$1+$1,$6,$7,$8,$9,0*
20,1,$1+$1,$8,$9,$2,$3,0*%
G04 Aperture macros list end*
%ADD10C,0.150000*%
%ADD11C,0.120000*%
%ADD12C,0.250000*%
%ADD13C,2.000000*%
%ADD14R,1.150000X1.400000*%
%ADD15C,3.200000*%
%ADD16R,1.400000X1.150000*%
%ADD17C,3.000000*%
%ADD18O,1.800000X2.600000*%
%ADD19R,1.800000X2.600000*%
%ADD20R,2.000000X2.000000*%
%ADD21R,1.600000X1.400000*%
%ADD22R,2.000000X4.500000*%
%ADD23R,1.600000X1.600000*%
%ADD24O,1.600000X1.600000*%
%ADD25C,1.440000*%
%ADD26R,1.700000X1.700000*%
%ADD27O,1.700000X1.700000*%
%ADD28R,0.800000X0.900000*%
%ADD29R,1.800000X1.000000*%
%ADD30RoundRect,0.243750X-0.456250X0.243750X-0.456250X-0.243750X0.456250X-0.243750X0.456250X0.243750X0*%
%ADD31R,1.400000X1.400000*%
%ADD32C,1.400000*%
%ADD33R,1.200000X2.200000*%
%ADD34R,5.800000X6.400000*%
%ADD35R,3.000000X3.000000*%
%ADD36RoundRect,0.400000X-0.900000X-0.400000X0.900000X-0.400000X0.900000X0.400000X-0.900000X0.400000X0*%
%ADD37RoundRect,0.400000X-0.400000X-0.900000X0.400000X-0.900000X0.400000X0.900000X-0.400000X0.900000X0*%
G04 APERTURE END LIST*
D10*
X96060440Y79776429D02*
X96536690Y83586429D01*
X97466511Y80865000D01*
X99076690Y83586429D01*
X98600440Y79776429D01*
X100414725Y79776429D02*
X100732225Y82316429D01*
X100890975Y83586429D02*
X100686868Y83405000D01*
X100845618Y83223572D01*
X101049725Y83405000D01*
X100890975Y83586429D01*
X100845618Y83223572D01*
X102546511Y82316429D02*
X102229011Y79776429D01*
X102501154Y81953572D02*
X102705261Y82135000D01*
X103090797Y82316429D01*
X103635083Y82316429D01*
X103975261Y82135000D01*
X104111333Y81772143D01*
X103861868Y79776429D01*
X105449368Y82316429D02*
X106900797Y82316429D01*
X106152404Y83586429D02*
X105744190Y80320715D01*
X105880261Y79957858D01*
X106220440Y79776429D01*
X106583297Y79776429D01*
X107807940Y82316429D02*
X108397583Y79776429D01*
X109622225Y82316429D02*
X108397583Y79776429D01*
X107921333Y78869286D01*
X107717225Y78687858D01*
X107331690Y78506429D01*
X115178475Y81772143D02*
X113908475Y81772143D01*
X113659011Y79776429D02*
X114135261Y83586429D01*
X115949547Y83586429D01*
X116924725Y79776429D02*
X117242225Y82316429D01*
X117151511Y81590715D02*
X117378297Y81953572D01*
X117582404Y82135000D01*
X117967940Y82316429D01*
X118330797Y82316429D01*
X120757404Y79957858D02*
X120371868Y79776429D01*
X119646154Y79776429D01*
X119305975Y79957858D01*
X119169904Y80320715D01*
X119351333Y81772143D01*
X119578118Y82135000D01*
X119963654Y82316429D01*
X120689368Y82316429D01*
X121029547Y82135000D01*
X121165618Y81772143D01*
X121120261Y81409286D01*
X119260618Y81046429D01*
X122390261Y79957858D02*
X122730440Y79776429D01*
X123456154Y79776429D01*
X123841690Y79957858D01*
X124068475Y80320715D01*
X124091154Y80502143D01*
X123955083Y80865000D01*
X123614904Y81046429D01*
X123070618Y81046429D01*
X122730440Y81227858D01*
X122594368Y81590715D01*
X122617047Y81772143D01*
X122843833Y82135000D01*
X123229368Y82316429D01*
X123773654Y82316429D01*
X124113833Y82135000D01*
X125633297Y79776429D02*
X126109547Y83586429D01*
X127266154Y79776429D02*
X127515618Y81772143D01*
X127379547Y82135000D01*
X127039368Y82316429D01*
X126495083Y82316429D01*
X126109547Y82135000D01*
X125905440Y81953572D01*
%TO.C,TP14*%
X51865904Y83029620D02*
X52437333Y83029620D01*
X52151619Y82029620D02*
X52151619Y83029620D01*
X52770666Y82029620D02*
X52770666Y83029620D01*
X53151619Y83029620D01*
X53246857Y82982000D01*
X53294476Y82934381D01*
X53342095Y82839143D01*
X53342095Y82696286D01*
X53294476Y82601048D01*
X53246857Y82553429D01*
X53151619Y82505810D01*
X52770666Y82505810D01*
X54294476Y82029620D02*
X53723047Y82029620D01*
X54008761Y82029620D02*
X54008761Y83029620D01*
X53913523Y82886762D01*
X53818285Y82791524D01*
X53723047Y82743905D01*
X55151619Y82696286D02*
X55151619Y82029620D01*
X54913523Y83077239D02*
X54675428Y82362953D01*
X55294476Y82362953D01*
%TO.C,TP13*%
X40435904Y60677620D02*
X41007333Y60677620D01*
X40721619Y59677620D02*
X40721619Y60677620D01*
X41340666Y59677620D02*
X41340666Y60677620D01*
X41721619Y60677620D01*
X41816857Y60630000D01*
X41864476Y60582381D01*
X41912095Y60487143D01*
X41912095Y60344286D01*
X41864476Y60249048D01*
X41816857Y60201429D01*
X41721619Y60153810D01*
X41340666Y60153810D01*
X42864476Y59677620D02*
X42293047Y59677620D01*
X42578761Y59677620D02*
X42578761Y60677620D01*
X42483523Y60534762D01*
X42388285Y60439524D01*
X42293047Y60391905D01*
X43197809Y60677620D02*
X43816857Y60677620D01*
X43483523Y60296667D01*
X43626380Y60296667D01*
X43721619Y60249048D01*
X43769238Y60201429D01*
X43816857Y60106191D01*
X43816857Y59868096D01*
X43769238Y59772858D01*
X43721619Y59725239D01*
X43626380Y59677620D01*
X43340666Y59677620D01*
X43245428Y59725239D01*
X43197809Y59772858D01*
%TO.C,TP12*%
X65835904Y44421620D02*
X66407333Y44421620D01*
X66121619Y43421620D02*
X66121619Y44421620D01*
X66740666Y43421620D02*
X66740666Y44421620D01*
X67121619Y44421620D01*
X67216857Y44374000D01*
X67264476Y44326381D01*
X67312095Y44231143D01*
X67312095Y44088286D01*
X67264476Y43993048D01*
X67216857Y43945429D01*
X67121619Y43897810D01*
X66740666Y43897810D01*
X68264476Y43421620D02*
X67693047Y43421620D01*
X67978761Y43421620D02*
X67978761Y44421620D01*
X67883523Y44278762D01*
X67788285Y44183524D01*
X67693047Y44135905D01*
X68645428Y44326381D02*
X68693047Y44374000D01*
X68788285Y44421620D01*
X69026380Y44421620D01*
X69121619Y44374000D01*
X69169238Y44326381D01*
X69216857Y44231143D01*
X69216857Y44135905D01*
X69169238Y43993048D01*
X68597809Y43421620D01*
X69216857Y43421620D01*
%TO.C,TP11*%
X82345904Y46199620D02*
X82917333Y46199620D01*
X82631619Y45199620D02*
X82631619Y46199620D01*
X83250666Y45199620D02*
X83250666Y46199620D01*
X83631619Y46199620D01*
X83726857Y46152000D01*
X83774476Y46104381D01*
X83822095Y46009143D01*
X83822095Y45866286D01*
X83774476Y45771048D01*
X83726857Y45723429D01*
X83631619Y45675810D01*
X83250666Y45675810D01*
X84774476Y45199620D02*
X84203047Y45199620D01*
X84488761Y45199620D02*
X84488761Y46199620D01*
X84393523Y46056762D01*
X84298285Y45961524D01*
X84203047Y45913905D01*
X85726857Y45199620D02*
X85155428Y45199620D01*
X85441142Y45199620D02*
X85441142Y46199620D01*
X85345904Y46056762D01*
X85250666Y45961524D01*
X85155428Y45913905D01*
%TO.C,TP10*%
X85647904Y74139620D02*
X86219333Y74139620D01*
X85933619Y73139620D02*
X85933619Y74139620D01*
X86552666Y73139620D02*
X86552666Y74139620D01*
X86933619Y74139620D01*
X87028857Y74092000D01*
X87076476Y74044381D01*
X87124095Y73949143D01*
X87124095Y73806286D01*
X87076476Y73711048D01*
X87028857Y73663429D01*
X86933619Y73615810D01*
X86552666Y73615810D01*
X88076476Y73139620D02*
X87505047Y73139620D01*
X87790761Y73139620D02*
X87790761Y74139620D01*
X87695523Y73996762D01*
X87600285Y73901524D01*
X87505047Y73853905D01*
X88695523Y74139620D02*
X88790761Y74139620D01*
X88886000Y74092000D01*
X88933619Y74044381D01*
X88981238Y73949143D01*
X89028857Y73758667D01*
X89028857Y73520572D01*
X88981238Y73330096D01*
X88933619Y73234858D01*
X88886000Y73187239D01*
X88790761Y73139620D01*
X88695523Y73139620D01*
X88600285Y73187239D01*
X88552666Y73234858D01*
X88505047Y73330096D01*
X88457428Y73520572D01*
X88457428Y73758667D01*
X88505047Y73949143D01*
X88552666Y74044381D01*
X88600285Y74092000D01*
X88695523Y74139620D01*
%TO.C,TP9*%
X52596095Y74393620D02*
X53167523Y74393620D01*
X52881809Y73393620D02*
X52881809Y74393620D01*
X53500857Y73393620D02*
X53500857Y74393620D01*
X53881809Y74393620D01*
X53977047Y74346000D01*
X54024666Y74298381D01*
X54072285Y74203143D01*
X54072285Y74060286D01*
X54024666Y73965048D01*
X53977047Y73917429D01*
X53881809Y73869810D01*
X53500857Y73869810D01*
X54548476Y73393620D02*
X54738952Y73393620D01*
X54834190Y73441239D01*
X54881809Y73488858D01*
X54977047Y73631715D01*
X55024666Y73822191D01*
X55024666Y74203143D01*
X54977047Y74298381D01*
X54929428Y74346000D01*
X54834190Y74393620D01*
X54643714Y74393620D01*
X54548476Y74346000D01*
X54500857Y74298381D01*
X54453238Y74203143D01*
X54453238Y73965048D01*
X54500857Y73869810D01*
X54548476Y73822191D01*
X54643714Y73774572D01*
X54834190Y73774572D01*
X54929428Y73822191D01*
X54977047Y73869810D01*
X55024666Y73965048D01*
%TO.C,TP8*%
X13734095Y35057620D02*
X14305523Y35057620D01*
X14019809Y34057620D02*
X14019809Y35057620D01*
X14638857Y34057620D02*
X14638857Y35057620D01*
X15019809Y35057620D01*
X15115047Y35010000D01*
X15162666Y34962381D01*
X15210285Y34867143D01*
X15210285Y34724286D01*
X15162666Y34629048D01*
X15115047Y34581429D01*
X15019809Y34533810D01*
X14638857Y34533810D01*
X15781714Y34629048D02*
X15686476Y34676667D01*
X15638857Y34724286D01*
X15591238Y34819524D01*
X15591238Y34867143D01*
X15638857Y34962381D01*
X15686476Y35010000D01*
X15781714Y35057620D01*
X15972190Y35057620D01*
X16067428Y35010000D01*
X16115047Y34962381D01*
X16162666Y34867143D01*
X16162666Y34819524D01*
X16115047Y34724286D01*
X16067428Y34676667D01*
X15972190Y34629048D01*
X15781714Y34629048D01*
X15686476Y34581429D01*
X15638857Y34533810D01*
X15591238Y34438572D01*
X15591238Y34248096D01*
X15638857Y34152858D01*
X15686476Y34105239D01*
X15781714Y34057620D01*
X15972190Y34057620D01*
X16067428Y34105239D01*
X16115047Y34152858D01*
X16162666Y34248096D01*
X16162666Y34438572D01*
X16115047Y34533810D01*
X16067428Y34581429D01*
X15972190Y34629048D01*
%TO.C,TP7*%
X3574095Y70837620D02*
X4145523Y70837620D01*
X3859809Y69837620D02*
X3859809Y70837620D01*
X4478857Y69837620D02*
X4478857Y70837620D01*
X4859809Y70837620D01*
X4955047Y70790000D01*
X5002666Y70742381D01*
X5050285Y70647143D01*
X5050285Y70504286D01*
X5002666Y70409048D01*
X4955047Y70361429D01*
X4859809Y70313810D01*
X4478857Y70313810D01*
X5383619Y70837620D02*
X6050285Y70837620D01*
X5621714Y69837620D01*
%TO.C,TP6*%
X12210095Y8353620D02*
X12781523Y8353620D01*
X12495809Y7353620D02*
X12495809Y8353620D01*
X13114857Y7353620D02*
X13114857Y8353620D01*
X13495809Y8353620D01*
X13591047Y8306000D01*
X13638666Y8258381D01*
X13686285Y8163143D01*
X13686285Y8020286D01*
X13638666Y7925048D01*
X13591047Y7877429D01*
X13495809Y7829810D01*
X13114857Y7829810D01*
X14543428Y8353620D02*
X14352952Y8353620D01*
X14257714Y8306000D01*
X14210095Y8258381D01*
X14114857Y8115524D01*
X14067238Y7925048D01*
X14067238Y7544096D01*
X14114857Y7448858D01*
X14162476Y7401239D01*
X14257714Y7353620D01*
X14448190Y7353620D01*
X14543428Y7401239D01*
X14591047Y7448858D01*
X14638666Y7544096D01*
X14638666Y7782191D01*
X14591047Y7877429D01*
X14543428Y7925048D01*
X14448190Y7972667D01*
X14257714Y7972667D01*
X14162476Y7925048D01*
X14114857Y7877429D01*
X14067238Y7782191D01*
%TO.C,TP5*%
X128796095Y53311620D02*
X129367523Y53311620D01*
X129081809Y52311620D02*
X129081809Y53311620D01*
X129700857Y52311620D02*
X129700857Y53311620D01*
X130081809Y53311620D01*
X130177047Y53264000D01*
X130224666Y53216381D01*
X130272285Y53121143D01*
X130272285Y52978286D01*
X130224666Y52883048D01*
X130177047Y52835429D01*
X130081809Y52787810D01*
X129700857Y52787810D01*
X131177047Y53311620D02*
X130700857Y53311620D01*
X130653238Y52835429D01*
X130700857Y52883048D01*
X130796095Y52930667D01*
X131034190Y52930667D01*
X131129428Y52883048D01*
X131177047Y52835429D01*
X131224666Y52740191D01*
X131224666Y52502096D01*
X131177047Y52406858D01*
X131129428Y52359239D01*
X131034190Y52311620D01*
X130796095Y52311620D01*
X130700857Y52359239D01*
X130653238Y52406858D01*
%TO.C,TP4*%
X108984095Y53565620D02*
X109555523Y53565620D01*
X109269809Y52565620D02*
X109269809Y53565620D01*
X109888857Y52565620D02*
X109888857Y53565620D01*
X110269809Y53565620D01*
X110365047Y53518000D01*
X110412666Y53470381D01*
X110460285Y53375143D01*
X110460285Y53232286D01*
X110412666Y53137048D01*
X110365047Y53089429D01*
X110269809Y53041810D01*
X109888857Y53041810D01*
X111317428Y53232286D02*
X111317428Y52565620D01*
X111079333Y53613239D02*
X110841238Y52898953D01*
X111460285Y52898953D01*
%TO.C,TP3*%
X124732095Y71345620D02*
X125303523Y71345620D01*
X125017809Y70345620D02*
X125017809Y71345620D01*
X125636857Y70345620D02*
X125636857Y71345620D01*
X126017809Y71345620D01*
X126113047Y71298000D01*
X126160666Y71250381D01*
X126208285Y71155143D01*
X126208285Y71012286D01*
X126160666Y70917048D01*
X126113047Y70869429D01*
X126017809Y70821810D01*
X125636857Y70821810D01*
X126541619Y71345620D02*
X127160666Y71345620D01*
X126827333Y70964667D01*
X126970190Y70964667D01*
X127065428Y70917048D01*
X127113047Y70869429D01*
X127160666Y70774191D01*
X127160666Y70536096D01*
X127113047Y70440858D01*
X127065428Y70393239D01*
X126970190Y70345620D01*
X126684476Y70345620D01*
X126589238Y70393239D01*
X126541619Y70440858D01*
%TO.C,TP2*%
X108984095Y71345620D02*
X109555523Y71345620D01*
X109269809Y70345620D02*
X109269809Y71345620D01*
X109888857Y70345620D02*
X109888857Y71345620D01*
X110269809Y71345620D01*
X110365047Y71298000D01*
X110412666Y71250381D01*
X110460285Y71155143D01*
X110460285Y71012286D01*
X110412666Y70917048D01*
X110365047Y70869429D01*
X110269809Y70821810D01*
X109888857Y70821810D01*
X110841238Y71250381D02*
X110888857Y71298000D01*
X110984095Y71345620D01*
X111222190Y71345620D01*
X111317428Y71298000D01*
X111365047Y71250381D01*
X111412666Y71155143D01*
X111412666Y71059905D01*
X111365047Y70917048D01*
X110793619Y70345620D01*
X111412666Y70345620D01*
%TO.C,TP1*%
X129812095Y20799620D02*
X130383523Y20799620D01*
X130097809Y19799620D02*
X130097809Y20799620D01*
X130716857Y19799620D02*
X130716857Y20799620D01*
X131097809Y20799620D01*
X131193047Y20752000D01*
X131240666Y20704381D01*
X131288285Y20609143D01*
X131288285Y20466286D01*
X131240666Y20371048D01*
X131193047Y20323429D01*
X131097809Y20275810D01*
X130716857Y20275810D01*
X132240666Y19799620D02*
X131669238Y19799620D01*
X131954952Y19799620D02*
X131954952Y20799620D01*
X131859714Y20656762D01*
X131764476Y20561524D01*
X131669238Y20513905D01*
%TO.C,R12*%
X127637142Y65553620D02*
X127303809Y66029810D01*
X127065714Y65553620D02*
X127065714Y66553620D01*
X127446666Y66553620D01*
X127541904Y66506000D01*
X127589523Y66458381D01*
X127637142Y66363143D01*
X127637142Y66220286D01*
X127589523Y66125048D01*
X127541904Y66077429D01*
X127446666Y66029810D01*
X127065714Y66029810D01*
X128589523Y65553620D02*
X128018095Y65553620D01*
X128303809Y65553620D02*
X128303809Y66553620D01*
X128208571Y66410762D01*
X128113333Y66315524D01*
X128018095Y66267905D01*
X128970476Y66458381D02*
X129018095Y66506000D01*
X129113333Y66553620D01*
X129351428Y66553620D01*
X129446666Y66506000D01*
X129494285Y66458381D01*
X129541904Y66363143D01*
X129541904Y66267905D01*
X129494285Y66125048D01*
X128922857Y65553620D01*
X129541904Y65553620D01*
%TO.C,H4*%
X134238095Y8747620D02*
X134238095Y9747620D01*
X134238095Y9271429D02*
X134809523Y9271429D01*
X134809523Y8747620D02*
X134809523Y9747620D01*
X135714285Y9414286D02*
X135714285Y8747620D01*
X135476190Y9795239D02*
X135238095Y9080953D01*
X135857142Y9080953D01*
%TO.C,R11*%
X124335142Y62251620D02*
X124001809Y62727810D01*
X123763714Y62251620D02*
X123763714Y63251620D01*
X124144666Y63251620D01*
X124239904Y63204000D01*
X124287523Y63156381D01*
X124335142Y63061143D01*
X124335142Y62918286D01*
X124287523Y62823048D01*
X124239904Y62775429D01*
X124144666Y62727810D01*
X123763714Y62727810D01*
X125287523Y62251620D02*
X124716095Y62251620D01*
X125001809Y62251620D02*
X125001809Y63251620D01*
X124906571Y63108762D01*
X124811333Y63013524D01*
X124716095Y62965905D01*
X126239904Y62251620D02*
X125668476Y62251620D01*
X125954190Y62251620D02*
X125954190Y63251620D01*
X125858952Y63108762D01*
X125763714Y63013524D01*
X125668476Y62965905D01*
%TO.C,C5*%
X75805142Y72697334D02*
X75852761Y72649715D01*
X75900380Y72506858D01*
X75900380Y72411620D01*
X75852761Y72268762D01*
X75757523Y72173524D01*
X75662285Y72125905D01*
X75471809Y72078286D01*
X75328952Y72078286D01*
X75138476Y72125905D01*
X75043238Y72173524D01*
X74948000Y72268762D01*
X74900380Y72411620D01*
X74900380Y72506858D01*
X74948000Y72649715D01*
X74995619Y72697334D01*
X74900380Y73602096D02*
X74900380Y73125905D01*
X75376571Y73078286D01*
X75328952Y73125905D01*
X75281333Y73221143D01*
X75281333Y73459239D01*
X75328952Y73554477D01*
X75376571Y73602096D01*
X75471809Y73649715D01*
X75709904Y73649715D01*
X75805142Y73602096D01*
X75852761Y73554477D01*
X75900380Y73459239D01*
X75900380Y73221143D01*
X75852761Y73125905D01*
X75805142Y73078286D01*
%TO.C,C8*%
X127927142Y28858334D02*
X127974761Y28810715D01*
X128022380Y28667858D01*
X128022380Y28572620D01*
X127974761Y28429762D01*
X127879523Y28334524D01*
X127784285Y28286905D01*
X127593809Y28239286D01*
X127450952Y28239286D01*
X127260476Y28286905D01*
X127165238Y28334524D01*
X127070000Y28429762D01*
X127022380Y28572620D01*
X127022380Y28667858D01*
X127070000Y28810715D01*
X127117619Y28858334D01*
X127450952Y29429762D02*
X127403333Y29334524D01*
X127355714Y29286905D01*
X127260476Y29239286D01*
X127212857Y29239286D01*
X127117619Y29286905D01*
X127070000Y29334524D01*
X127022380Y29429762D01*
X127022380Y29620239D01*
X127070000Y29715477D01*
X127117619Y29763096D01*
X127212857Y29810715D01*
X127260476Y29810715D01*
X127355714Y29763096D01*
X127403333Y29715477D01*
X127450952Y29620239D01*
X127450952Y29429762D01*
X127498571Y29334524D01*
X127546190Y29286905D01*
X127641428Y29239286D01*
X127831904Y29239286D01*
X127927142Y29286905D01*
X127974761Y29334524D01*
X128022380Y29429762D01*
X128022380Y29620239D01*
X127974761Y29715477D01*
X127927142Y29763096D01*
X127831904Y29810715D01*
X127641428Y29810715D01*
X127546190Y29763096D01*
X127498571Y29715477D01*
X127450952Y29620239D01*
%TO.C,DS1*%
X39185702Y30247620D02*
X39185702Y31247620D01*
X39423797Y31247620D01*
X39566654Y31200000D01*
X39661892Y31104762D01*
X39709511Y31009524D01*
X39757130Y30819048D01*
X39757130Y30676191D01*
X39709511Y30485715D01*
X39661892Y30390477D01*
X39566654Y30295239D01*
X39423797Y30247620D01*
X39185702Y30247620D01*
X40138083Y30295239D02*
X40280940Y30247620D01*
X40519035Y30247620D01*
X40614273Y30295239D01*
X40661892Y30342858D01*
X40709511Y30438096D01*
X40709511Y30533334D01*
X40661892Y30628572D01*
X40614273Y30676191D01*
X40519035Y30723810D01*
X40328559Y30771429D01*
X40233321Y30819048D01*
X40185702Y30866667D01*
X40138083Y30961905D01*
X40138083Y31057143D01*
X40185702Y31152381D01*
X40233321Y31200000D01*
X40328559Y31247620D01*
X40566654Y31247620D01*
X40709511Y31200000D01*
X41661892Y30247620D02*
X41090464Y30247620D01*
X41376178Y30247620D02*
X41376178Y31247620D01*
X41280940Y31104762D01*
X41185702Y31009524D01*
X41090464Y30961905D01*
%TO.C,R4*%
X30562380Y73713334D02*
X30086190Y73380000D01*
X30562380Y73141905D02*
X29562380Y73141905D01*
X29562380Y73522858D01*
X29610000Y73618096D01*
X29657619Y73665715D01*
X29752857Y73713334D01*
X29895714Y73713334D01*
X29990952Y73665715D01*
X30038571Y73618096D01*
X30086190Y73522858D01*
X30086190Y73141905D01*
X29895714Y74570477D02*
X30562380Y74570477D01*
X29514761Y74332381D02*
X30229047Y74094286D01*
X30229047Y74713334D01*
%TO.C,C4*%
X72757142Y69903334D02*
X72804761Y69855715D01*
X72852380Y69712858D01*
X72852380Y69617620D01*
X72804761Y69474762D01*
X72709523Y69379524D01*
X72614285Y69331905D01*
X72423809Y69284286D01*
X72280952Y69284286D01*
X72090476Y69331905D01*
X71995238Y69379524D01*
X71900000Y69474762D01*
X71852380Y69617620D01*
X71852380Y69712858D01*
X71900000Y69855715D01*
X71947619Y69903334D01*
X72185714Y70760477D02*
X72852380Y70760477D01*
X71804761Y70522381D02*
X72519047Y70284286D01*
X72519047Y70903334D01*
%TO.C,R7*%
X74376380Y40185334D02*
X73900190Y39852000D01*
X74376380Y39613905D02*
X73376380Y39613905D01*
X73376380Y39994858D01*
X73424000Y40090096D01*
X73471619Y40137715D01*
X73566857Y40185334D01*
X73709714Y40185334D01*
X73804952Y40137715D01*
X73852571Y40090096D01*
X73900190Y39994858D01*
X73900190Y39613905D01*
X73376380Y40518667D02*
X73376380Y41185334D01*
X74376380Y40756762D01*
%TO.C,BZ1*%
X15998571Y38833832D02*
X16046190Y38976689D01*
X16093809Y39024308D01*
X16189047Y39071927D01*
X16331904Y39071927D01*
X16427142Y39024308D01*
X16474761Y38976689D01*
X16522380Y38881451D01*
X16522380Y38500499D01*
X15522380Y38500499D01*
X15522380Y38833832D01*
X15570000Y38929070D01*
X15617619Y38976689D01*
X15712857Y39024308D01*
X15808095Y39024308D01*
X15903333Y38976689D01*
X15950952Y38929070D01*
X15998571Y38833832D01*
X15998571Y38500499D01*
X15522380Y39405261D02*
X15522380Y40071927D01*
X16522380Y39405261D01*
X16522380Y40071927D01*
X16522380Y40976689D02*
X16522380Y40405261D01*
X16522380Y40690975D02*
X15522380Y40690975D01*
X15665238Y40595737D01*
X15760476Y40500499D01*
X15808095Y40405261D01*
%TO.C,R13*%
X3939142Y31517620D02*
X3605809Y31993810D01*
X3367714Y31517620D02*
X3367714Y32517620D01*
X3748666Y32517620D01*
X3843904Y32470000D01*
X3891523Y32422381D01*
X3939142Y32327143D01*
X3939142Y32184286D01*
X3891523Y32089048D01*
X3843904Y32041429D01*
X3748666Y31993810D01*
X3367714Y31993810D01*
X4891523Y31517620D02*
X4320095Y31517620D01*
X4605809Y31517620D02*
X4605809Y32517620D01*
X4510571Y32374762D01*
X4415333Y32279524D01*
X4320095Y32231905D01*
X5224857Y32517620D02*
X5843904Y32517620D01*
X5510571Y32136667D01*
X5653428Y32136667D01*
X5748666Y32089048D01*
X5796285Y32041429D01*
X5843904Y31946191D01*
X5843904Y31708096D01*
X5796285Y31612858D01*
X5748666Y31565239D01*
X5653428Y31517620D01*
X5367714Y31517620D01*
X5272476Y31565239D01*
X5224857Y31612858D01*
%TO.C,C6*%
X129129333Y55996858D02*
X129081714Y55949239D01*
X128938857Y55901620D01*
X128843619Y55901620D01*
X128700761Y55949239D01*
X128605523Y56044477D01*
X128557904Y56139715D01*
X128510285Y56330191D01*
X128510285Y56473048D01*
X128557904Y56663524D01*
X128605523Y56758762D01*
X128700761Y56854000D01*
X128843619Y56901620D01*
X128938857Y56901620D01*
X129081714Y56854000D01*
X129129333Y56806381D01*
X129986476Y56901620D02*
X129796000Y56901620D01*
X129700761Y56854000D01*
X129653142Y56806381D01*
X129557904Y56663524D01*
X129510285Y56473048D01*
X129510285Y56092096D01*
X129557904Y55996858D01*
X129605523Y55949239D01*
X129700761Y55901620D01*
X129891238Y55901620D01*
X129986476Y55949239D01*
X130034095Y55996858D01*
X130081714Y56092096D01*
X130081714Y56330191D01*
X130034095Y56425429D01*
X129986476Y56473048D01*
X129891238Y56520667D01*
X129700761Y56520667D01*
X129605523Y56473048D01*
X129557904Y56425429D01*
X129510285Y56330191D01*
%TO.C,R10*%
X5463142Y24913620D02*
X5129809Y25389810D01*
X4891714Y24913620D02*
X4891714Y25913620D01*
X5272666Y25913620D01*
X5367904Y25866000D01*
X5415523Y25818381D01*
X5463142Y25723143D01*
X5463142Y25580286D01*
X5415523Y25485048D01*
X5367904Y25437429D01*
X5272666Y25389810D01*
X4891714Y25389810D01*
X6415523Y24913620D02*
X5844095Y24913620D01*
X6129809Y24913620D02*
X6129809Y25913620D01*
X6034571Y25770762D01*
X5939333Y25675524D01*
X5844095Y25627905D01*
X7034571Y25913620D02*
X7129809Y25913620D01*
X7225047Y25866000D01*
X7272666Y25818381D01*
X7320285Y25723143D01*
X7367904Y25532667D01*
X7367904Y25294572D01*
X7320285Y25104096D01*
X7272666Y25008858D01*
X7225047Y24961239D01*
X7129809Y24913620D01*
X7034571Y24913620D01*
X6939333Y24961239D01*
X6891714Y25008858D01*
X6844095Y25104096D01*
X6796476Y25294572D01*
X6796476Y25532667D01*
X6844095Y25723143D01*
X6891714Y25818381D01*
X6939333Y25866000D01*
X7034571Y25913620D01*
%TO.C,SW2*%
X116786666Y72695239D02*
X116929523Y72647620D01*
X117167619Y72647620D01*
X117262857Y72695239D01*
X117310476Y72742858D01*
X117358095Y72838096D01*
X117358095Y72933334D01*
X117310476Y73028572D01*
X117262857Y73076191D01*
X117167619Y73123810D01*
X116977142Y73171429D01*
X116881904Y73219048D01*
X116834285Y73266667D01*
X116786666Y73361905D01*
X116786666Y73457143D01*
X116834285Y73552381D01*
X116881904Y73600000D01*
X116977142Y73647620D01*
X117215238Y73647620D01*
X117358095Y73600000D01*
X117691428Y73647620D02*
X117929523Y72647620D01*
X118120000Y73361905D01*
X118310476Y72647620D01*
X118548571Y73647620D01*
X118881904Y73552381D02*
X118929523Y73600000D01*
X119024761Y73647620D01*
X119262857Y73647620D01*
X119358095Y73600000D01*
X119405714Y73552381D01*
X119453333Y73457143D01*
X119453333Y73361905D01*
X119405714Y73219048D01*
X118834285Y72647620D01*
X119453333Y72647620D01*
%TO.C,C9*%
X15083333Y29326858D02*
X15035714Y29279239D01*
X14892857Y29231620D01*
X14797619Y29231620D01*
X14654761Y29279239D01*
X14559523Y29374477D01*
X14511904Y29469715D01*
X14464285Y29660191D01*
X14464285Y29803048D01*
X14511904Y29993524D01*
X14559523Y30088762D01*
X14654761Y30184000D01*
X14797619Y30231620D01*
X14892857Y30231620D01*
X15035714Y30184000D01*
X15083333Y30136381D01*
X15559523Y29231620D02*
X15750000Y29231620D01*
X15845238Y29279239D01*
X15892857Y29326858D01*
X15988095Y29469715D01*
X16035714Y29660191D01*
X16035714Y30041143D01*
X15988095Y30136381D01*
X15940476Y30184000D01*
X15845238Y30231620D01*
X15654761Y30231620D01*
X15559523Y30184000D01*
X15511904Y30136381D01*
X15464285Y30041143D01*
X15464285Y29803048D01*
X15511904Y29707810D01*
X15559523Y29660191D01*
X15654761Y29612572D01*
X15845238Y29612572D01*
X15940476Y29660191D01*
X15988095Y29707810D01*
X16035714Y29803048D01*
%TO.C,Y1*%
X3796190Y17123810D02*
X4272380Y17123810D01*
X3272380Y16790477D02*
X3796190Y17123810D01*
X3272380Y17457143D01*
X4272380Y18314286D02*
X4272380Y17742858D01*
X4272380Y18028572D02*
X3272380Y18028572D01*
X3415238Y17933334D01*
X3510476Y17838096D01*
X3558095Y17742858D01*
%TO.C,R2*%
X67319333Y71269620D02*
X66986000Y71745810D01*
X66747904Y71269620D02*
X66747904Y72269620D01*
X67128857Y72269620D01*
X67224095Y72222000D01*
X67271714Y72174381D01*
X67319333Y72079143D01*
X67319333Y71936286D01*
X67271714Y71841048D01*
X67224095Y71793429D01*
X67128857Y71745810D01*
X66747904Y71745810D01*
X67700285Y72174381D02*
X67747904Y72222000D01*
X67843142Y72269620D01*
X68081238Y72269620D01*
X68176476Y72222000D01*
X68224095Y72174381D01*
X68271714Y72079143D01*
X68271714Y71983905D01*
X68224095Y71841048D01*
X67652666Y71269620D01*
X68271714Y71269620D01*
%TO.C,SW4*%
X116786666Y54915239D02*
X116929523Y54867620D01*
X117167619Y54867620D01*
X117262857Y54915239D01*
X117310476Y54962858D01*
X117358095Y55058096D01*
X117358095Y55153334D01*
X117310476Y55248572D01*
X117262857Y55296191D01*
X117167619Y55343810D01*
X116977142Y55391429D01*
X116881904Y55439048D01*
X116834285Y55486667D01*
X116786666Y55581905D01*
X116786666Y55677143D01*
X116834285Y55772381D01*
X116881904Y55820000D01*
X116977142Y55867620D01*
X117215238Y55867620D01*
X117358095Y55820000D01*
X117691428Y55867620D02*
X117929523Y54867620D01*
X118120000Y55581905D01*
X118310476Y54867620D01*
X118548571Y55867620D01*
X119358095Y55534286D02*
X119358095Y54867620D01*
X119120000Y55915239D02*
X118881904Y55200953D01*
X119500952Y55200953D01*
%TO.C,U1*%
X20848095Y44997620D02*
X20848095Y44188096D01*
X20895714Y44092858D01*
X20943333Y44045239D01*
X21038571Y43997620D01*
X21229047Y43997620D01*
X21324285Y44045239D01*
X21371904Y44092858D01*
X21419523Y44188096D01*
X21419523Y44997620D01*
X22419523Y43997620D02*
X21848095Y43997620D01*
X22133809Y43997620D02*
X22133809Y44997620D01*
X22038571Y44854762D01*
X21943333Y44759524D01*
X21848095Y44711905D01*
%TO.C,C3*%
X5827142Y12753334D02*
X5874761Y12705715D01*
X5922380Y12562858D01*
X5922380Y12467620D01*
X5874761Y12324762D01*
X5779523Y12229524D01*
X5684285Y12181905D01*
X5493809Y12134286D01*
X5350952Y12134286D01*
X5160476Y12181905D01*
X5065238Y12229524D01*
X4970000Y12324762D01*
X4922380Y12467620D01*
X4922380Y12562858D01*
X4970000Y12705715D01*
X5017619Y12753334D01*
X4922380Y13086667D02*
X4922380Y13705715D01*
X5303333Y13372381D01*
X5303333Y13515239D01*
X5350952Y13610477D01*
X5398571Y13658096D01*
X5493809Y13705715D01*
X5731904Y13705715D01*
X5827142Y13658096D01*
X5874761Y13610477D01*
X5922380Y13515239D01*
X5922380Y13229524D01*
X5874761Y13134286D01*
X5827142Y13086667D01*
%TO.C,H2*%
X134238095Y88747620D02*
X134238095Y89747620D01*
X134238095Y89271429D02*
X134809523Y89271429D01*
X134809523Y88747620D02*
X134809523Y89747620D01*
X135238095Y89652381D02*
X135285714Y89700000D01*
X135380952Y89747620D01*
X135619047Y89747620D01*
X135714285Y89700000D01*
X135761904Y89652381D01*
X135809523Y89557143D01*
X135809523Y89461905D01*
X135761904Y89319048D01*
X135190476Y88747620D01*
X135809523Y88747620D01*
%TO.C,RV1*%
X137287380Y42819762D02*
X136811190Y42486429D01*
X137287380Y42248334D02*
X136287380Y42248334D01*
X136287380Y42629286D01*
X136335000Y42724524D01*
X136382619Y42772143D01*
X136477857Y42819762D01*
X136620714Y42819762D01*
X136715952Y42772143D01*
X136763571Y42724524D01*
X136811190Y42629286D01*
X136811190Y42248334D01*
X136287380Y43105477D02*
X137287380Y43438810D01*
X136287380Y43772143D01*
X137287380Y44629286D02*
X137287380Y44057858D01*
X137287380Y44343572D02*
X136287380Y44343572D01*
X136430238Y44248334D01*
X136525476Y44153096D01*
X136573095Y44057858D01*
%TO.C,H3*%
X4238095Y8747620D02*
X4238095Y9747620D01*
X4238095Y9271429D02*
X4809523Y9271429D01*
X4809523Y8747620D02*
X4809523Y9747620D01*
X5190476Y9747620D02*
X5809523Y9747620D01*
X5476190Y9366667D01*
X5619047Y9366667D01*
X5714285Y9319048D01*
X5761904Y9271429D01*
X5809523Y9176191D01*
X5809523Y8938096D01*
X5761904Y8842858D01*
X5714285Y8795239D01*
X5619047Y8747620D01*
X5333333Y8747620D01*
X5238095Y8795239D01*
X5190476Y8842858D01*
%TO.C,C1*%
X29053333Y25642858D02*
X29005714Y25595239D01*
X28862857Y25547620D01*
X28767619Y25547620D01*
X28624761Y25595239D01*
X28529523Y25690477D01*
X28481904Y25785715D01*
X28434285Y25976191D01*
X28434285Y26119048D01*
X28481904Y26309524D01*
X28529523Y26404762D01*
X28624761Y26500000D01*
X28767619Y26547620D01*
X28862857Y26547620D01*
X29005714Y26500000D01*
X29053333Y26452381D01*
X30005714Y25547620D02*
X29434285Y25547620D01*
X29720000Y25547620D02*
X29720000Y26547620D01*
X29624761Y26404762D01*
X29529523Y26309524D01*
X29434285Y26261905D01*
%TO.C,J2*%
X39046666Y54107620D02*
X39046666Y53393334D01*
X38999047Y53250477D01*
X38903809Y53155239D01*
X38760952Y53107620D01*
X38665714Y53107620D01*
X39475238Y54012381D02*
X39522857Y54060000D01*
X39618095Y54107620D01*
X39856190Y54107620D01*
X39951428Y54060000D01*
X39999047Y54012381D01*
X40046666Y53917143D01*
X40046666Y53821905D01*
X39999047Y53679048D01*
X39427619Y53107620D01*
X40046666Y53107620D01*
%TO.C,SW3*%
X101546666Y54915239D02*
X101689523Y54867620D01*
X101927619Y54867620D01*
X102022857Y54915239D01*
X102070476Y54962858D01*
X102118095Y55058096D01*
X102118095Y55153334D01*
X102070476Y55248572D01*
X102022857Y55296191D01*
X101927619Y55343810D01*
X101737142Y55391429D01*
X101641904Y55439048D01*
X101594285Y55486667D01*
X101546666Y55581905D01*
X101546666Y55677143D01*
X101594285Y55772381D01*
X101641904Y55820000D01*
X101737142Y55867620D01*
X101975238Y55867620D01*
X102118095Y55820000D01*
X102451428Y55867620D02*
X102689523Y54867620D01*
X102880000Y55581905D01*
X103070476Y54867620D01*
X103308571Y55867620D01*
X103594285Y55867620D02*
X104213333Y55867620D01*
X103880000Y55486667D01*
X104022857Y55486667D01*
X104118095Y55439048D01*
X104165714Y55391429D01*
X104213333Y55296191D01*
X104213333Y55058096D01*
X104165714Y54962858D01*
X104118095Y54915239D01*
X104022857Y54867620D01*
X103737142Y54867620D01*
X103641904Y54915239D01*
X103594285Y54962858D01*
%TO.C,H1*%
X4238095Y88747620D02*
X4238095Y89747620D01*
X4238095Y89271429D02*
X4809523Y89271429D01*
X4809523Y88747620D02*
X4809523Y89747620D01*
X5809523Y88747620D02*
X5238095Y88747620D01*
X5523809Y88747620D02*
X5523809Y89747620D01*
X5428571Y89604762D01*
X5333333Y89509524D01*
X5238095Y89461905D01*
%TO.C,Q1*%
X7497619Y28059762D02*
X7450000Y27964524D01*
X7354761Y27869286D01*
X7211904Y27726429D01*
X7164285Y27631191D01*
X7164285Y27535953D01*
X7402380Y27583572D02*
X7354761Y27488334D01*
X7259523Y27393096D01*
X7069047Y27345477D01*
X6735714Y27345477D01*
X6545238Y27393096D01*
X6450000Y27488334D01*
X6402380Y27583572D01*
X6402380Y27774048D01*
X6450000Y27869286D01*
X6545238Y27964524D01*
X6735714Y28012143D01*
X7069047Y28012143D01*
X7259523Y27964524D01*
X7354761Y27869286D01*
X7402380Y27774048D01*
X7402380Y27583572D01*
X7402380Y28964524D02*
X7402380Y28393096D01*
X7402380Y28678810D02*
X6402380Y28678810D01*
X6545238Y28583572D01*
X6640476Y28488334D01*
X6688095Y28393096D01*
%TO.C,R3*%
X30562380Y81333334D02*
X30086190Y81000000D01*
X30562380Y80761905D02*
X29562380Y80761905D01*
X29562380Y81142858D01*
X29610000Y81238096D01*
X29657619Y81285715D01*
X29752857Y81333334D01*
X29895714Y81333334D01*
X29990952Y81285715D01*
X30038571Y81238096D01*
X30086190Y81142858D01*
X30086190Y80761905D01*
X29562380Y81666667D02*
X29562380Y82285715D01*
X29943333Y81952381D01*
X29943333Y82095239D01*
X29990952Y82190477D01*
X30038571Y82238096D01*
X30133809Y82285715D01*
X30371904Y82285715D01*
X30467142Y82238096D01*
X30514761Y82190477D01*
X30562380Y82095239D01*
X30562380Y81809524D01*
X30514761Y81714286D01*
X30467142Y81666667D01*
%TO.C,R6*%
X104222380Y61013334D02*
X103746190Y60680000D01*
X104222380Y60441905D02*
X103222380Y60441905D01*
X103222380Y60822858D01*
X103270000Y60918096D01*
X103317619Y60965715D01*
X103412857Y61013334D01*
X103555714Y61013334D01*
X103650952Y60965715D01*
X103698571Y60918096D01*
X103746190Y60822858D01*
X103746190Y60441905D01*
X103222380Y61870477D02*
X103222380Y61680000D01*
X103270000Y61584762D01*
X103317619Y61537143D01*
X103460476Y61441905D01*
X103650952Y61394286D01*
X104031904Y61394286D01*
X104127142Y61441905D01*
X104174761Y61489524D01*
X104222380Y61584762D01*
X104222380Y61775239D01*
X104174761Y61870477D01*
X104127142Y61918096D01*
X104031904Y61965715D01*
X103793809Y61965715D01*
X103698571Y61918096D01*
X103650952Y61870477D01*
X103603333Y61775239D01*
X103603333Y61584762D01*
X103650952Y61489524D01*
X103698571Y61441905D01*
X103793809Y61394286D01*
%TO.C,J3*%
X133026666Y73157620D02*
X133026666Y72443334D01*
X132979047Y72300477D01*
X132883809Y72205239D01*
X132740952Y72157620D01*
X132645714Y72157620D01*
X133407619Y73157620D02*
X134026666Y73157620D01*
X133693333Y72776667D01*
X133836190Y72776667D01*
X133931428Y72729048D01*
X133979047Y72681429D01*
X134026666Y72586191D01*
X134026666Y72348096D01*
X133979047Y72252858D01*
X133931428Y72205239D01*
X133836190Y72157620D01*
X133550476Y72157620D01*
X133455238Y72205239D01*
X133407619Y72252858D01*
%TO.C,U2*%
X88157380Y79468096D02*
X88966904Y79468096D01*
X89062142Y79515715D01*
X89109761Y79563334D01*
X89157380Y79658572D01*
X89157380Y79849048D01*
X89109761Y79944286D01*
X89062142Y79991905D01*
X88966904Y80039524D01*
X88157380Y80039524D01*
X88252619Y80468096D02*
X88205000Y80515715D01*
X88157380Y80610953D01*
X88157380Y80849048D01*
X88205000Y80944286D01*
X88252619Y80991905D01*
X88347857Y81039524D01*
X88443095Y81039524D01*
X88585952Y80991905D01*
X89157380Y80420477D01*
X89157380Y81039524D01*
%TO.C,Y2*%
X12006190Y82303810D02*
X12482380Y82303810D01*
X11482380Y81970477D02*
X12006190Y82303810D01*
X11482380Y82637143D01*
X11577619Y82922858D02*
X11530000Y82970477D01*
X11482380Y83065715D01*
X11482380Y83303810D01*
X11530000Y83399048D01*
X11577619Y83446667D01*
X11672857Y83494286D01*
X11768095Y83494286D01*
X11910952Y83446667D01*
X12482380Y82875239D01*
X12482380Y83494286D01*
%TO.C,R1*%
X35642380Y60143334D02*
X35166190Y59810000D01*
X35642380Y59571905D02*
X34642380Y59571905D01*
X34642380Y59952858D01*
X34690000Y60048096D01*
X34737619Y60095715D01*
X34832857Y60143334D01*
X34975714Y60143334D01*
X35070952Y60095715D01*
X35118571Y60048096D01*
X35166190Y59952858D01*
X35166190Y59571905D01*
X35642380Y61095715D02*
X35642380Y60524286D01*
X35642380Y60810000D02*
X34642380Y60810000D01*
X34785238Y60714762D01*
X34880476Y60619524D01*
X34928095Y60524286D01*
%TO.C,R9*%
X104222380Y43233334D02*
X103746190Y42900000D01*
X104222380Y42661905D02*
X103222380Y42661905D01*
X103222380Y43042858D01*
X103270000Y43138096D01*
X103317619Y43185715D01*
X103412857Y43233334D01*
X103555714Y43233334D01*
X103650952Y43185715D01*
X103698571Y43138096D01*
X103746190Y43042858D01*
X103746190Y42661905D01*
X104222380Y43709524D02*
X104222380Y43900000D01*
X104174761Y43995239D01*
X104127142Y44042858D01*
X103984285Y44138096D01*
X103793809Y44185715D01*
X103412857Y44185715D01*
X103317619Y44138096D01*
X103270000Y44090477D01*
X103222380Y43995239D01*
X103222380Y43804762D01*
X103270000Y43709524D01*
X103317619Y43661905D01*
X103412857Y43614286D01*
X103650952Y43614286D01*
X103746190Y43661905D01*
X103793809Y43709524D01*
X103841428Y43804762D01*
X103841428Y43995239D01*
X103793809Y44090477D01*
X103746190Y44138096D01*
X103650952Y44185715D01*
%TO.C,D1*%
X38942380Y64651905D02*
X37942380Y64651905D01*
X37942380Y64890000D01*
X37990000Y65032858D01*
X38085238Y65128096D01*
X38180476Y65175715D01*
X38370952Y65223334D01*
X38513809Y65223334D01*
X38704285Y65175715D01*
X38799523Y65128096D01*
X38894761Y65032858D01*
X38942380Y64890000D01*
X38942380Y64651905D01*
X38942380Y66175715D02*
X38942380Y65604286D01*
X38942380Y65890000D02*
X37942380Y65890000D01*
X38085238Y65794762D01*
X38180476Y65699524D01*
X38228095Y65604286D01*
%TO.C,U3*%
X22108095Y86917620D02*
X22108095Y86108096D01*
X22155714Y86012858D01*
X22203333Y85965239D01*
X22298571Y85917620D01*
X22489047Y85917620D01*
X22584285Y85965239D01*
X22631904Y86012858D01*
X22679523Y86108096D01*
X22679523Y86917620D01*
X23060476Y86917620D02*
X23679523Y86917620D01*
X23346190Y86536667D01*
X23489047Y86536667D01*
X23584285Y86489048D01*
X23631904Y86441429D01*
X23679523Y86346191D01*
X23679523Y86108096D01*
X23631904Y86012858D01*
X23584285Y85965239D01*
X23489047Y85917620D01*
X23203333Y85917620D01*
X23108095Y85965239D01*
X23060476Y86012858D01*
%TO.C,C2*%
X5827142Y22913334D02*
X5874761Y22865715D01*
X5922380Y22722858D01*
X5922380Y22627620D01*
X5874761Y22484762D01*
X5779523Y22389524D01*
X5684285Y22341905D01*
X5493809Y22294286D01*
X5350952Y22294286D01*
X5160476Y22341905D01*
X5065238Y22389524D01*
X4970000Y22484762D01*
X4922380Y22627620D01*
X4922380Y22722858D01*
X4970000Y22865715D01*
X5017619Y22913334D01*
X5017619Y23294286D02*
X4970000Y23341905D01*
X4922380Y23437143D01*
X4922380Y23675239D01*
X4970000Y23770477D01*
X5017619Y23818096D01*
X5112857Y23865715D01*
X5208095Y23865715D01*
X5350952Y23818096D01*
X5922380Y23246667D01*
X5922380Y23865715D01*
%TO.C,R8*%
X119462380Y61013334D02*
X118986190Y60680000D01*
X119462380Y60441905D02*
X118462380Y60441905D01*
X118462380Y60822858D01*
X118510000Y60918096D01*
X118557619Y60965715D01*
X118652857Y61013334D01*
X118795714Y61013334D01*
X118890952Y60965715D01*
X118938571Y60918096D01*
X118986190Y60822858D01*
X118986190Y60441905D01*
X118890952Y61584762D02*
X118843333Y61489524D01*
X118795714Y61441905D01*
X118700476Y61394286D01*
X118652857Y61394286D01*
X118557619Y61441905D01*
X118510000Y61489524D01*
X118462380Y61584762D01*
X118462380Y61775239D01*
X118510000Y61870477D01*
X118557619Y61918096D01*
X118652857Y61965715D01*
X118700476Y61965715D01*
X118795714Y61918096D01*
X118843333Y61870477D01*
X118890952Y61775239D01*
X118890952Y61584762D01*
X118938571Y61489524D01*
X118986190Y61441905D01*
X119081428Y61394286D01*
X119271904Y61394286D01*
X119367142Y61441905D01*
X119414761Y61489524D01*
X119462380Y61584762D01*
X119462380Y61775239D01*
X119414761Y61870477D01*
X119367142Y61918096D01*
X119271904Y61965715D01*
X119081428Y61965715D01*
X118986190Y61918096D01*
X118938571Y61870477D01*
X118890952Y61775239D01*
%TO.C,DS2*%
X44427385Y49350596D02*
X43427385Y49350596D01*
X43427385Y49588691D01*
X43475005Y49731548D01*
X43570243Y49826786D01*
X43665481Y49874405D01*
X43855957Y49922024D01*
X43998814Y49922024D01*
X44189290Y49874405D01*
X44284528Y49826786D01*
X44379766Y49731548D01*
X44427385Y49588691D01*
X44427385Y49350596D01*
X44379766Y50302977D02*
X44427385Y50445834D01*
X44427385Y50683929D01*
X44379766Y50779167D01*
X44332147Y50826786D01*
X44236909Y50874405D01*
X44141671Y50874405D01*
X44046433Y50826786D01*
X43998814Y50779167D01*
X43951195Y50683929D01*
X43903576Y50493453D01*
X43855957Y50398215D01*
X43808338Y50350596D01*
X43713100Y50302977D01*
X43617862Y50302977D01*
X43522624Y50350596D01*
X43475005Y50398215D01*
X43427385Y50493453D01*
X43427385Y50731548D01*
X43475005Y50874405D01*
X43522624Y51255358D02*
X43475005Y51302977D01*
X43427385Y51398215D01*
X43427385Y51636310D01*
X43475005Y51731548D01*
X43522624Y51779167D01*
X43617862Y51826786D01*
X43713100Y51826786D01*
X43855957Y51779167D01*
X44427385Y51207739D01*
X44427385Y51826786D01*
X60020523Y50766000D02*
X60020523Y50161239D01*
X58750523Y50161239D01*
X59355285Y51189334D02*
X59355285Y51612667D01*
X60020523Y51794096D02*
X60020523Y51189334D01*
X58750523Y51189334D01*
X58750523Y51794096D01*
X60020523Y52338381D02*
X58750523Y52338381D01*
X58750523Y52640762D01*
X58811000Y52822191D01*
X58931952Y52943143D01*
X59052904Y53003620D01*
X59294809Y53064096D01*
X59476238Y53064096D01*
X59718142Y53003620D01*
X59839095Y52943143D01*
X59960047Y52822191D01*
X60020523Y52640762D01*
X60020523Y52338381D01*
X60141476Y53306000D02*
X60141476Y54273620D01*
X60020523Y54576000D02*
X58750523Y54576000D01*
X58750523Y54878381D01*
X58811000Y55059810D01*
X58931952Y55180762D01*
X59052904Y55241239D01*
X59294809Y55301715D01*
X59476238Y55301715D01*
X59718142Y55241239D01*
X59839095Y55180762D01*
X59960047Y55059810D01*
X60020523Y54878381D01*
X60020523Y54576000D01*
X60020523Y55846000D02*
X59173857Y55846000D01*
X58750523Y55846000D02*
X58811000Y55785524D01*
X58871476Y55846000D01*
X58811000Y55906477D01*
X58750523Y55846000D01*
X58871476Y55846000D01*
X59960047Y56390286D02*
X60020523Y56511239D01*
X60020523Y56753143D01*
X59960047Y56874096D01*
X59839095Y56934572D01*
X59778619Y56934572D01*
X59657666Y56874096D01*
X59597190Y56753143D01*
X59597190Y56571715D01*
X59536714Y56450762D01*
X59415761Y56390286D01*
X59355285Y56390286D01*
X59234333Y56450762D01*
X59173857Y56571715D01*
X59173857Y56753143D01*
X59234333Y56874096D01*
X59173857Y57478858D02*
X60443857Y57478858D01*
X59234333Y57478858D02*
X59173857Y57599810D01*
X59173857Y57841715D01*
X59234333Y57962667D01*
X59294809Y58023143D01*
X59415761Y58083620D01*
X59778619Y58083620D01*
X59899571Y58023143D01*
X59960047Y57962667D01*
X60020523Y57841715D01*
X60020523Y57599810D01*
X59960047Y57478858D01*
X60020523Y58809334D02*
X59960047Y58688381D01*
X59839095Y58627905D01*
X58750523Y58627905D01*
X60020523Y59837429D02*
X59355285Y59837429D01*
X59234333Y59776953D01*
X59173857Y59656000D01*
X59173857Y59414096D01*
X59234333Y59293143D01*
X59960047Y59837429D02*
X60020523Y59716477D01*
X60020523Y59414096D01*
X59960047Y59293143D01*
X59839095Y59232667D01*
X59718142Y59232667D01*
X59597190Y59293143D01*
X59536714Y59414096D01*
X59536714Y59716477D01*
X59476238Y59837429D01*
X59173857Y60321239D02*
X60020523Y60623620D01*
X59173857Y60926000D02*
X60020523Y60623620D01*
X60322904Y60502667D01*
X60383380Y60442191D01*
X60443857Y60321239D01*
X60141476Y61107429D02*
X60141476Y62075048D01*
X60020523Y63042667D02*
X60020523Y62316953D01*
X60020523Y62679810D02*
X58750523Y62679810D01*
X58931952Y62558858D01*
X59052904Y62437905D01*
X59113380Y62316953D01*
X58750523Y63828858D02*
X58750523Y63949810D01*
X58811000Y64070762D01*
X58871476Y64131239D01*
X58992428Y64191715D01*
X59234333Y64252191D01*
X59536714Y64252191D01*
X59778619Y64191715D01*
X59899571Y64131239D01*
X59960047Y64070762D01*
X60020523Y63949810D01*
X60020523Y63828858D01*
X59960047Y63707905D01*
X59899571Y63647429D01*
X59778619Y63586953D01*
X59536714Y63526477D01*
X59234333Y63526477D01*
X58992428Y63586953D01*
X58871476Y63647429D01*
X58811000Y63707905D01*
X58750523Y63828858D01*
X58750523Y65038381D02*
X58750523Y65159334D01*
X58811000Y65280286D01*
X58871476Y65340762D01*
X58992428Y65401239D01*
X59234333Y65461715D01*
X59536714Y65461715D01*
X59778619Y65401239D01*
X59899571Y65340762D01*
X59960047Y65280286D01*
X60020523Y65159334D01*
X60020523Y65038381D01*
X59960047Y64917429D01*
X59899571Y64856953D01*
X59778619Y64796477D01*
X59536714Y64736000D01*
X59234333Y64736000D01*
X58992428Y64796477D01*
X58871476Y64856953D01*
X58811000Y64917429D01*
X58750523Y65038381D01*
X60020523Y66671239D02*
X60020523Y65945524D01*
X60020523Y66308381D02*
X58750523Y66308381D01*
X58931952Y66187429D01*
X59052904Y66066477D01*
X59113380Y65945524D01*
%TO.C,SW1*%
X101546666Y72695239D02*
X101689523Y72647620D01*
X101927619Y72647620D01*
X102022857Y72695239D01*
X102070476Y72742858D01*
X102118095Y72838096D01*
X102118095Y72933334D01*
X102070476Y73028572D01*
X102022857Y73076191D01*
X101927619Y73123810D01*
X101737142Y73171429D01*
X101641904Y73219048D01*
X101594285Y73266667D01*
X101546666Y73361905D01*
X101546666Y73457143D01*
X101594285Y73552381D01*
X101641904Y73600000D01*
X101737142Y73647620D01*
X101975238Y73647620D01*
X102118095Y73600000D01*
X102451428Y73647620D02*
X102689523Y72647620D01*
X102880000Y73361905D01*
X103070476Y72647620D01*
X103308571Y73647620D01*
X104213333Y72647620D02*
X103641904Y72647620D01*
X103927619Y72647620D02*
X103927619Y73647620D01*
X103832380Y73504762D01*
X103737142Y73409524D01*
X103641904Y73361905D01*
%TO.C,U4*%
X118077380Y30378096D02*
X118886904Y30378096D01*
X118982142Y30425715D01*
X119029761Y30473334D01*
X119077380Y30568572D01*
X119077380Y30759048D01*
X119029761Y30854286D01*
X118982142Y30901905D01*
X118886904Y30949524D01*
X118077380Y30949524D01*
X118410714Y31854286D02*
X119077380Y31854286D01*
X118029761Y31616191D02*
X118744047Y31378096D01*
X118744047Y31997143D01*
%TO.C,BT1*%
X21020571Y70300286D02*
X21068190Y70443143D01*
X21115809Y70490762D01*
X21211047Y70538381D01*
X21353904Y70538381D01*
X21449142Y70490762D01*
X21496761Y70443143D01*
X21544380Y70347905D01*
X21544380Y69966953D01*
X20544380Y69966953D01*
X20544380Y70300286D01*
X20592000Y70395524D01*
X20639619Y70443143D01*
X20734857Y70490762D01*
X20830095Y70490762D01*
X20925333Y70443143D01*
X20972952Y70395524D01*
X21020571Y70300286D01*
X21020571Y69966953D01*
X20544380Y70824096D02*
X20544380Y71395524D01*
X21544380Y71109810D02*
X20544380Y71109810D01*
X21544380Y72252667D02*
X21544380Y71681239D01*
X21544380Y71966953D02*
X20544380Y71966953D01*
X20687238Y71871715D01*
X20782476Y71776477D01*
X20830095Y71681239D01*
X16627126Y66932258D02*
X16627126Y68075115D01*
X17198555Y67503686D02*
X16055698Y67503686D01*
%TO.C,C7*%
X115227142Y28858334D02*
X115274761Y28810715D01*
X115322380Y28667858D01*
X115322380Y28572620D01*
X115274761Y28429762D01*
X115179523Y28334524D01*
X115084285Y28286905D01*
X114893809Y28239286D01*
X114750952Y28239286D01*
X114560476Y28286905D01*
X114465238Y28334524D01*
X114370000Y28429762D01*
X114322380Y28572620D01*
X114322380Y28667858D01*
X114370000Y28810715D01*
X114417619Y28858334D01*
X114322380Y29191667D02*
X114322380Y29858334D01*
X115322380Y29429762D01*
%TO.C,R5*%
X119462380Y43233334D02*
X118986190Y42900000D01*
X119462380Y42661905D02*
X118462380Y42661905D01*
X118462380Y43042858D01*
X118510000Y43138096D01*
X118557619Y43185715D01*
X118652857Y43233334D01*
X118795714Y43233334D01*
X118890952Y43185715D01*
X118938571Y43138096D01*
X118986190Y43042858D01*
X118986190Y42661905D01*
X118462380Y44138096D02*
X118462380Y43661905D01*
X118938571Y43614286D01*
X118890952Y43661905D01*
X118843333Y43757143D01*
X118843333Y43995239D01*
X118890952Y44090477D01*
X118938571Y44138096D01*
X119033809Y44185715D01*
X119271904Y44185715D01*
X119367142Y44138096D01*
X119414761Y44090477D01*
X119462380Y43995239D01*
X119462380Y43757143D01*
X119414761Y43661905D01*
X119367142Y43614286D01*
D11*
%TO.C,TP14*%
X54804000Y80484000D02*
G75*
G03*
X54804000Y80484000I-1200000J0D01*
G01*
%TO.C,TP13*%
X43374000Y58132000D02*
G75*
G03*
X43374000Y58132000I-1200000J0D01*
G01*
%TO.C,TP12*%
X68774000Y41876000D02*
G75*
G03*
X68774000Y41876000I-1200000J0D01*
G01*
%TO.C,TP11*%
X85284000Y43654000D02*
G75*
G03*
X85284000Y43654000I-1200000J0D01*
G01*
%TO.C,TP10*%
X88586000Y71594000D02*
G75*
G03*
X88586000Y71594000I-1200000J0D01*
G01*
%TO.C,TP9*%
X55058000Y71848000D02*
G75*
G03*
X55058000Y71848000I-1200000J0D01*
G01*
%TO.C,TP8*%
X15180000Y32224000D02*
G75*
G03*
X15180000Y32224000I-1200000J0D01*
G01*
%TO.C,TP7*%
X6036000Y68292000D02*
G75*
G03*
X6036000Y68292000I-1200000J0D01*
G01*
%TO.C,TP6*%
X14672000Y5808000D02*
G75*
G03*
X14672000Y5808000I-1200000J0D01*
G01*
%TO.C,TP5*%
X131258000Y50766000D02*
G75*
G03*
X131258000Y50766000I-1200000J0D01*
G01*
%TO.C,TP4*%
X111446000Y51020000D02*
G75*
G03*
X111446000Y51020000I-1200000J0D01*
G01*
%TO.C,TP3*%
X127194000Y68800000D02*
G75*
G03*
X127194000Y68800000I-1200000J0D01*
G01*
%TO.C,TP2*%
X111446000Y68800000D02*
G75*
G03*
X111446000Y68800000I-1200000J0D01*
G01*
%TO.C,TP1*%
X132274000Y18254000D02*
G75*
G03*
X132274000Y18254000I-1200000J0D01*
G01*
%TO.C,DS1*%
X32259988Y2257500D02*
X112539988Y2257500D01*
X112539988Y2257500D02*
X112539988Y38537500D01*
X112539988Y38537500D02*
X33059988Y38537500D01*
X32259988Y38537500D02*
X32259988Y2257500D01*
X32269988Y38537500D02*
X33059988Y38537500D01*
X38899988Y38897500D02*
X41899988Y38897500D01*
X40599988Y27897500D02*
X104099988Y27897500D01*
X40100268Y13398180D02*
X40100268Y27397500D01*
X104100648Y12897500D02*
X40599988Y12897500D01*
X104599988Y27397500D02*
X104599988Y13397500D01*
X35399988Y32897500D02*
X108399988Y32897500D01*
X108399988Y32897500D02*
X108399988Y7897500D01*
X108399988Y7897500D02*
X35399988Y7897500D01*
X35399988Y7897500D02*
X35399988Y32897500D01*
X40600648Y27899040D02*
G75*
G03*
X40100268Y27398660I0J-500380D01*
G01*
X40100268Y13398180D02*
G75*
G03*
X40600648Y12897800I500380J0D01*
G01*
X104100648Y12897800D02*
G75*
G03*
X104601028Y13398180I0J500380D01*
G01*
X104599988Y27397500D02*
G75*
G03*
X104099988Y27897500I-500000J0D01*
G01*
%TO.C,BZ1*%
X15130000Y39714784D02*
G75*
G03*
X15130000Y39714784I-6230000J0D01*
G01*
X10400000Y46114784D02*
G75*
G03*
X7400001Y46114784I-1500000J-6400000D01*
G01*
%TO.C,SW2*%
X113020000Y72100000D02*
X114020000Y72100000D01*
X113020000Y71100000D02*
X113020000Y72100000D01*
X115020000Y70100000D02*
X115020000Y67500000D01*
X121220000Y70100000D02*
X121220000Y67500000D01*
X121120000Y65550000D02*
X115120000Y65550000D01*
X121020000Y72050000D02*
X115220000Y72050000D01*
%TO.C,Y1*%
X8890000Y23900000D02*
X8890000Y11300000D01*
X8890000Y11300000D02*
X13990000Y11300000D01*
X13990000Y11300000D02*
X13990000Y23900000D01*
%TO.C,SW4*%
X113020000Y54320000D02*
X114020000Y54320000D01*
X113020000Y53320000D02*
X113020000Y54320000D01*
X115020000Y52320000D02*
X115020000Y49720000D01*
X121220000Y52320000D02*
X121220000Y49720000D01*
X121120000Y47770000D02*
X115120000Y47770000D01*
X121020000Y54270000D02*
X115220000Y54270000D01*
%TO.C,U1*%
X24260000Y43450000D02*
X22610000Y43450000D01*
X24260000Y7770000D02*
X24260000Y43450000D01*
X18960000Y7770000D02*
X24260000Y7770000D01*
X18960000Y43450000D02*
X18960000Y7770000D01*
X20610000Y43450000D02*
X18960000Y43450000D01*
X20610000Y43450000D02*
G75*
G03*
X22610000Y43450000I1000000J0D01*
G01*
%TO.C,RV1*%
X135705000Y48300000D02*
X125935000Y48300000D01*
X135705000Y38530000D02*
X125935000Y38530000D01*
X125935000Y48300000D02*
X125935000Y38530000D01*
X135705000Y48300000D02*
X135705000Y38530000D01*
%TO.C,J2*%
X35510000Y52350000D02*
X36840000Y52350000D01*
X35510000Y51020000D02*
X35510000Y52350000D01*
X38110000Y52350000D02*
X40710000Y52350000D01*
X38110000Y49750000D02*
X38110000Y52350000D01*
X35510000Y49750000D02*
X38110000Y49750000D01*
X40710000Y52350000D02*
X40710000Y44610000D01*
X35510000Y49750000D02*
X35510000Y44610000D01*
X35510000Y44610000D02*
X40710000Y44610000D01*
%TO.C,SW3*%
X97780000Y54320000D02*
X98780000Y54320000D01*
X97780000Y53320000D02*
X97780000Y54320000D01*
X99780000Y52320000D02*
X99780000Y49720000D01*
X105980000Y52320000D02*
X105980000Y49720000D01*
X105880000Y47770000D02*
X99880000Y47770000D01*
X105780000Y54270000D02*
X99980000Y54270000D01*
%TO.C,Q1*%
X11030000Y28915000D02*
X11030000Y27455000D01*
X7870000Y28915000D02*
X7870000Y26755000D01*
X7870000Y28915000D02*
X8800000Y28915000D01*
X11030000Y28915000D02*
X10100000Y28915000D01*
%TO.C,J3*%
X132030000Y56040000D02*
X134690000Y56040000D01*
X132030000Y68800000D02*
X132030000Y56040000D01*
X134690000Y68800000D02*
X134690000Y56040000D01*
X132030000Y68800000D02*
X134690000Y68800000D01*
X132030000Y70070000D02*
X132030000Y71400000D01*
X132030000Y71400000D02*
X133360000Y71400000D01*
%TO.C,U2*%
X87705000Y81230000D02*
X87705000Y82880000D01*
X57105000Y82880000D02*
X57105000Y77580000D01*
X87705000Y77580000D02*
X87705000Y79230000D01*
X87705000Y82880000D02*
X57105000Y82880000D01*
X57105000Y77580000D02*
X87705000Y77580000D01*
X87705000Y81230000D02*
G75*
G03*
X87705000Y79230000I0J-1000000D01*
G01*
%TO.C,Y2*%
X13080000Y80830000D02*
X14880000Y80830000D01*
X14930000Y82230000D02*
X14930000Y83330000D01*
X13030000Y82230000D02*
X13030000Y83330000D01*
%TO.C,D1*%
X37800000Y64390000D02*
X37800000Y67075000D01*
X37800000Y67075000D02*
X35880000Y67075000D01*
X35880000Y67075000D02*
X35880000Y64390000D01*
%TO.C,U3*%
X20220000Y75090000D02*
X25520000Y75090000D01*
X20220000Y85370000D02*
X20220000Y75090000D01*
X21870000Y85370000D02*
X20220000Y85370000D01*
X25520000Y85370000D02*
X23870000Y85370000D01*
X25520000Y75090000D02*
X25520000Y85370000D01*
X21870000Y85370000D02*
G75*
G03*
X23870000Y85370000I1000000J0D01*
G01*
D12*
%TO.C,DS2*%
X62505005Y48415000D02*
G75*
G03*
X62505005Y48415000I-125000J0D01*
G01*
D10*
X95225005Y49015000D02*
X44775005Y49015000D01*
X95225005Y49015000D02*
X95225005Y68265000D01*
X95225005Y68265000D02*
X44775005Y68265000D01*
X44775005Y49015000D02*
X44775005Y68265000D01*
D11*
%TO.C,SW1*%
X97780000Y72100000D02*
X98780000Y72100000D01*
X97780000Y71100000D02*
X97780000Y72100000D01*
X99780000Y70100000D02*
X99780000Y67500000D01*
X105980000Y70100000D02*
X105980000Y67500000D01*
X105880000Y65550000D02*
X99880000Y65550000D01*
X105780000Y72050000D02*
X99980000Y72050000D01*
%TO.C,U4*%
X119675000Y30170000D02*
X119675000Y28670000D01*
X119945000Y28670000D02*
X119945000Y25840000D01*
X126305000Y28670000D02*
X126305000Y27570000D01*
X126575000Y30170000D02*
X126575000Y28670000D01*
X119675000Y28670000D02*
X119945000Y28670000D01*
X126575000Y28670000D02*
X126305000Y28670000D01*
%TO.C,BT1*%
X13469984Y71753686D02*
X13469984Y69303686D01*
X19569984Y69303686D02*
X19569984Y71753686D01*
X19019984Y72303686D02*
X14019984Y72303686D01*
X12999984Y68603686D02*
G75*
G03*
X17035975Y44990243I3520000J-11550000D01*
G01*
X14019984Y72303686D02*
G75*
G03*
X13469984Y71753686I-1J-549999D01*
G01*
X19569984Y71753686D02*
G75*
G03*
X19019984Y72303686I-549999J1D01*
G01*
X16003993Y44990243D02*
G75*
G03*
X20039984Y68603686I515991J12063443D01*
G01*
X19569984Y69303686D02*
G75*
G03*
X20063469Y68598917I750000J0D01*
G01*
X12976499Y68598917D02*
G75*
G03*
X13469984Y69303686I-256515J704769D01*
G01*
%TD*%
%LPC*%
D13*
%TO.C,TP14*%
X53604000Y80484000D03*
%TD*%
%TO.C,TP13*%
X42174000Y58132000D03*
%TD*%
%TO.C,TP12*%
X67574000Y41876000D03*
%TD*%
%TO.C,TP11*%
X84084000Y43654000D03*
%TD*%
%TO.C,TP10*%
X87386000Y71594000D03*
%TD*%
%TO.C,TP9*%
X53858000Y71848000D03*
%TD*%
%TO.C,TP8*%
X13980000Y32224000D03*
%TD*%
%TO.C,TP7*%
X4836000Y68292000D03*
%TD*%
%TO.C,TP6*%
X13472000Y5808000D03*
%TD*%
%TO.C,TP5*%
X130058000Y50766000D03*
%TD*%
%TO.C,TP4*%
X110246000Y51020000D03*
%TD*%
%TO.C,TP3*%
X125994000Y68800000D03*
%TD*%
%TO.C,TP2*%
X110246000Y68800000D03*
%TD*%
%TO.C,TP1*%
X131074000Y18254000D03*
%TD*%
D14*
%TO.C,R12*%
X127430000Y63720000D03*
X129130000Y63720000D03*
%TD*%
D15*
%TO.C,H4*%
X135000000Y5000000D03*
%TD*%
D14*
%TO.C,R11*%
X127430000Y61180000D03*
X129130000Y61180000D03*
%TD*%
D16*
%TO.C,C5*%
X73416000Y74134000D03*
X73416000Y72434000D03*
%TD*%
%TO.C,C8*%
X129220000Y28175000D03*
X129220000Y29875000D03*
%TD*%
D17*
%TO.C,DS1*%
X109899988Y35897500D03*
X109899468Y4896800D03*
X34900888Y4896800D03*
X34900888Y35897500D03*
D18*
X78499988Y35897500D03*
X75959988Y35897500D03*
X73419988Y35897500D03*
X70879988Y35897500D03*
X68339988Y35897500D03*
X65799988Y35897500D03*
X63259988Y35897500D03*
X60719988Y35897500D03*
X58179988Y35897500D03*
X55639988Y35897500D03*
X53099988Y35897500D03*
X50559988Y35897500D03*
X48019988Y35897500D03*
X45479988Y35897500D03*
X42939988Y35897500D03*
D19*
X40399988Y35897500D03*
%TD*%
D16*
%TO.C,R4*%
X31760000Y73030000D03*
X31760000Y74730000D03*
%TD*%
%TO.C,C4*%
X71130000Y74134000D03*
X71130000Y72434000D03*
%TD*%
%TO.C,R7*%
X75956000Y40010000D03*
X75956000Y41710000D03*
%TD*%
D13*
%TO.C,BZ1*%
X8900000Y37214784D03*
D20*
X8900000Y42214784D03*
%TD*%
D14*
%TO.C,R13*%
X7542000Y31716000D03*
X9242000Y31716000D03*
%TD*%
%TO.C,C6*%
X127430000Y58640000D03*
X129130000Y58640000D03*
%TD*%
D16*
%TO.C,R10*%
X3820000Y29005000D03*
X3820000Y27305000D03*
%TD*%
D21*
%TO.C,SW2*%
X122120000Y71050000D03*
X114120000Y71050000D03*
X122120000Y66550000D03*
X114120000Y66550000D03*
%TD*%
D14*
%TO.C,C9*%
X15084000Y27652000D03*
X13384000Y27652000D03*
%TD*%
D22*
%TO.C,Y1*%
X11440000Y13750000D03*
X11440000Y22250000D03*
%TD*%
D14*
%TO.C,R2*%
X68336000Y73372000D03*
X66636000Y73372000D03*
%TD*%
D21*
%TO.C,SW4*%
X122120000Y53270000D03*
X114120000Y53270000D03*
X122120000Y48770000D03*
X114120000Y48770000D03*
%TD*%
D23*
%TO.C,U1*%
X17800000Y42120000D03*
D24*
X17800000Y39580000D03*
X17800000Y37040000D03*
X17800000Y34500000D03*
X17800000Y31960000D03*
X17800000Y29420000D03*
X17800000Y26880000D03*
X17800000Y24340000D03*
X17800000Y21800000D03*
X17800000Y19260000D03*
X17800000Y16720000D03*
X17800000Y14180000D03*
X17800000Y11640000D03*
X17800000Y9100000D03*
X25420000Y9100000D03*
X25420000Y11640000D03*
X25420000Y14180000D03*
X25420000Y16720000D03*
X25420000Y19260000D03*
X25420000Y21800000D03*
X25420000Y24340000D03*
X25420000Y26880000D03*
X25420000Y29420000D03*
X25420000Y31960000D03*
X25420000Y34500000D03*
X25420000Y37040000D03*
X25420000Y39580000D03*
X25420000Y42120000D03*
%TD*%
D16*
%TO.C,C3*%
X3820000Y13770000D03*
X3820000Y12070000D03*
%TD*%
D15*
%TO.C,H2*%
X135000000Y85000000D03*
%TD*%
D25*
%TO.C,RV1*%
X128280000Y43400000D03*
X130820000Y40860000D03*
X133360000Y43400000D03*
%TD*%
D15*
%TO.C,H3*%
X5000000Y5000000D03*
%TD*%
D14*
%TO.C,C1*%
X28370000Y24350000D03*
X30070000Y24350000D03*
%TD*%
D26*
%TO.C,J2*%
X36840000Y51020000D03*
D27*
X39380000Y51020000D03*
X36840000Y48480000D03*
X39380000Y48480000D03*
X36840000Y45940000D03*
X39380000Y45940000D03*
%TD*%
D21*
%TO.C,SW3*%
X106880000Y53270000D03*
X98880000Y53270000D03*
X106880000Y48770000D03*
X98880000Y48770000D03*
%TD*%
D15*
%TO.C,H1*%
X5000000Y85000000D03*
%TD*%
D28*
%TO.C,Q1*%
X8500000Y27155000D03*
X10400000Y27155000D03*
X9450000Y29155000D03*
%TD*%
D16*
%TO.C,R3*%
X31760000Y80650000D03*
X31760000Y82350000D03*
%TD*%
%TO.C,R6*%
X105420000Y60330000D03*
X105420000Y62030000D03*
%TD*%
D27*
%TO.C,J3*%
X133360000Y57370000D03*
X133360000Y59910000D03*
X133360000Y62450000D03*
X133360000Y64990000D03*
X133360000Y67530000D03*
D26*
X133360000Y70070000D03*
%TD*%
D23*
%TO.C,U2*%
X86375000Y84040000D03*
D24*
X83835000Y84040000D03*
X81295000Y84040000D03*
X78755000Y84040000D03*
X76215000Y84040000D03*
X73675000Y84040000D03*
X71135000Y84040000D03*
X68595000Y84040000D03*
X66055000Y84040000D03*
X63515000Y84040000D03*
X60975000Y84040000D03*
X58435000Y84040000D03*
X58435000Y76420000D03*
X60975000Y76420000D03*
X63515000Y76420000D03*
X66055000Y76420000D03*
X68595000Y76420000D03*
X71135000Y76420000D03*
X73675000Y76420000D03*
X76215000Y76420000D03*
X78755000Y76420000D03*
X81295000Y76420000D03*
X83835000Y76420000D03*
X86375000Y76420000D03*
%TD*%
D29*
%TO.C,Y2*%
X13980000Y81530000D03*
X13980000Y84030000D03*
%TD*%
D16*
%TO.C,R1*%
X36840000Y59460000D03*
X36840000Y61160000D03*
%TD*%
%TO.C,R9*%
X105420000Y42550000D03*
X105420000Y44250000D03*
%TD*%
D30*
%TO.C,D1*%
X36840000Y66327500D03*
X36840000Y64452500D03*
%TD*%
D23*
%TO.C,U3*%
X19060000Y84040000D03*
D24*
X19060000Y81500000D03*
X19060000Y78960000D03*
X19060000Y76420000D03*
X26680000Y76420000D03*
X26680000Y78960000D03*
X26680000Y81500000D03*
X26680000Y84040000D03*
%TD*%
D16*
%TO.C,C2*%
X3820000Y23930000D03*
X3820000Y22230000D03*
%TD*%
%TO.C,R8*%
X120660000Y60330000D03*
X120660000Y62030000D03*
%TD*%
D31*
%TO.C,DS2*%
X62380005Y51020000D03*
D32*
X64920005Y51020000D03*
X67460005Y51020000D03*
X70000005Y51020000D03*
X72540005Y51020000D03*
X75080005Y51020000D03*
X77620005Y51020000D03*
X77620005Y66260000D03*
X75080005Y66260000D03*
X72540005Y66260000D03*
X70000005Y66260000D03*
X67460005Y66260000D03*
X64920005Y66260000D03*
X62380005Y66260000D03*
%TD*%
D21*
%TO.C,SW1*%
X106880000Y71050000D03*
X98880000Y71050000D03*
X106880000Y66550000D03*
X98880000Y66550000D03*
%TD*%
D33*
%TO.C,U4*%
X120845000Y26940000D03*
D34*
X123125000Y33240000D03*
D33*
X125405000Y26940000D03*
%TD*%
D35*
%TO.C,BT1*%
X16519984Y70253686D03*
D17*
X16519984Y49763686D03*
%TD*%
D16*
%TO.C,C7*%
X116520000Y28175000D03*
X116520000Y29875000D03*
%TD*%
%TO.C,R5*%
X120660000Y42550000D03*
X120660000Y44250000D03*
%TD*%
D36*
%TO.C,J1*%
X122820000Y18460000D03*
X122820000Y12460000D03*
D37*
X118120000Y15460000D03*
%TD*%
M02*
