%TF.GenerationSoftware,KiCad,Pcbnew,(6.0.5)*%
%TF.CreationDate,2022-07-20T20:14:35-05:00*%
%TF.ProjectId,julio_cool_clock,6a756c69-6f5f-4636-9f6f-6c5f636c6f63,rev?*%
%TF.SameCoordinates,PX4c4b400PY8a48640*%
%TF.FileFunction,Soldermask,Bot*%
%TF.FilePolarity,Negative*%
%FSLAX46Y46*%
G04 Gerber Fmt 4.6, Leading zero omitted, Abs format (unit mm)*
G04 Created by KiCad (PCBNEW (6.0.5)) date 2022-07-20 20:14:35*
%MOMM*%
%LPD*%
G01*
G04 APERTURE LIST*
G04 Aperture macros list*
%AMRoundRect*
0 Rectangle with rounded corners*
0 $1 Rounding radius*
0 $2 $3 $4 $5 $6 $7 $8 $9 X,Y pos of 4 corners*
0 Add a 4 corners polygon primitive as box body*
4,1,4,$2,$3,$4,$5,$6,$7,$8,$9,$2,$3,0*
0 Add four circle primitives for the rounded corners*
1,1,$1+$1,$2,$3*
1,1,$1+$1,$4,$5*
1,1,$1+$1,$6,$7*
1,1,$1+$1,$8,$9*
0 Add four rect primitives between the rounded corners*
20,1,$1+$1,$2,$3,$4,$5,0*
20,1,$1+$1,$4,$5,$6,$7,0*
20,1,$1+$1,$6,$7,$8,$9,0*
20,1,$1+$1,$8,$9,$2,$3,0*%
G04 Aperture macros list end*
%ADD10C,2.000000*%
%ADD11C,3.200000*%
%ADD12C,3.000000*%
%ADD13R,1.800000X2.600000*%
%ADD14O,1.800000X2.600000*%
%ADD15R,2.000000X2.000000*%
%ADD16R,1.600000X1.600000*%
%ADD17O,1.600000X1.600000*%
%ADD18C,1.440000*%
%ADD19R,1.700000X1.700000*%
%ADD20O,1.700000X1.700000*%
%ADD21R,1.400000X1.400000*%
%ADD22C,1.400000*%
%ADD23R,3.000000X3.000000*%
%ADD24RoundRect,0.400000X0.900000X0.400000X-0.900000X0.400000X-0.900000X-0.400000X0.900000X-0.400000X0*%
%ADD25RoundRect,0.400000X0.400000X0.900000X-0.400000X0.900000X-0.400000X-0.900000X0.400000X-0.900000X0*%
G04 APERTURE END LIST*
D10*
%TO.C,TP20*%
X27250000Y47750000D03*
%TD*%
%TO.C,TP19*%
X33750000Y57500000D03*
%TD*%
%TO.C,TP18*%
X28000000Y5000000D03*
%TD*%
%TO.C,TP17*%
X23000000Y5000000D03*
%TD*%
%TO.C,TP16*%
X18000000Y5000000D03*
%TD*%
%TO.C,TP15*%
X41250000Y64000000D03*
%TD*%
D11*
%TO.C,H4*%
X135000000Y5000000D03*
%TD*%
D10*
%TO.C,TP11*%
X84084000Y43654000D03*
%TD*%
%TO.C,TP12*%
X67574000Y41876000D03*
%TD*%
D12*
%TO.C,DS1*%
X34900888Y35897500D03*
X109899988Y35897500D03*
X34900888Y4896800D03*
X109899468Y4896800D03*
D13*
X40399988Y35897500D03*
D14*
X42939988Y35897500D03*
X45479988Y35897500D03*
X48019988Y35897500D03*
X50559988Y35897500D03*
X53099988Y35897500D03*
X55639988Y35897500D03*
X58179988Y35897500D03*
X60719988Y35897500D03*
X63259988Y35897500D03*
X65799988Y35897500D03*
X68339988Y35897500D03*
X70879988Y35897500D03*
X73419988Y35897500D03*
X75959988Y35897500D03*
X78499988Y35897500D03*
%TD*%
D15*
%TO.C,BZ1*%
X8900000Y42214784D03*
D10*
X8900000Y37214784D03*
%TD*%
%TO.C,TP1*%
X131074000Y18254000D03*
%TD*%
D16*
%TO.C,U1*%
X17800000Y42120000D03*
D17*
X17800000Y39580000D03*
X17800000Y37040000D03*
X17800000Y34500000D03*
X17800000Y31960000D03*
X17800000Y29420000D03*
X17800000Y26880000D03*
X17800000Y24340000D03*
X17800000Y21800000D03*
X17800000Y19260000D03*
X17800000Y16720000D03*
X17800000Y14180000D03*
X17800000Y11640000D03*
X17800000Y9100000D03*
X25420000Y9100000D03*
X25420000Y11640000D03*
X25420000Y14180000D03*
X25420000Y16720000D03*
X25420000Y19260000D03*
X25420000Y21800000D03*
X25420000Y24340000D03*
X25420000Y26880000D03*
X25420000Y29420000D03*
X25420000Y31960000D03*
X25420000Y34500000D03*
X25420000Y37040000D03*
X25420000Y39580000D03*
X25420000Y42120000D03*
%TD*%
D11*
%TO.C,H2*%
X135000000Y85000000D03*
%TD*%
D18*
%TO.C,RV1*%
X128280000Y43400000D03*
X130820000Y40860000D03*
X133360000Y43400000D03*
%TD*%
D11*
%TO.C,H3*%
X5000000Y5000000D03*
%TD*%
D10*
%TO.C,TP3*%
X125994000Y68800000D03*
%TD*%
%TO.C,TP13*%
X42174000Y58132000D03*
%TD*%
%TO.C,TP4*%
X110246000Y51020000D03*
%TD*%
D19*
%TO.C,J2*%
X36840000Y51020000D03*
D20*
X39380000Y51020000D03*
X36840000Y48480000D03*
X39380000Y48480000D03*
X36840000Y45940000D03*
X39380000Y45940000D03*
%TD*%
D10*
%TO.C,TP5*%
X130058000Y50766000D03*
%TD*%
D11*
%TO.C,H1*%
X5000000Y85000000D03*
%TD*%
D10*
%TO.C,TP9*%
X53858000Y71848000D03*
%TD*%
%TO.C,TP10*%
X87386000Y71594000D03*
%TD*%
%TO.C,TP6*%
X13472000Y5808000D03*
%TD*%
%TO.C,TP2*%
X110246000Y68800000D03*
%TD*%
%TO.C,TP8*%
X13980000Y32224000D03*
%TD*%
D19*
%TO.C,J3*%
X133360000Y70070000D03*
D20*
X133360000Y67530000D03*
X133360000Y64990000D03*
X133360000Y62450000D03*
X133360000Y59910000D03*
X133360000Y57370000D03*
%TD*%
D16*
%TO.C,U2*%
X86375000Y84040000D03*
D17*
X83835000Y84040000D03*
X81295000Y84040000D03*
X78755000Y84040000D03*
X76215000Y84040000D03*
X73675000Y84040000D03*
X71135000Y84040000D03*
X68595000Y84040000D03*
X66055000Y84040000D03*
X63515000Y84040000D03*
X60975000Y84040000D03*
X58435000Y84040000D03*
X58435000Y76420000D03*
X60975000Y76420000D03*
X63515000Y76420000D03*
X66055000Y76420000D03*
X68595000Y76420000D03*
X71135000Y76420000D03*
X73675000Y76420000D03*
X76215000Y76420000D03*
X78755000Y76420000D03*
X81295000Y76420000D03*
X83835000Y76420000D03*
X86375000Y76420000D03*
%TD*%
D10*
%TO.C,TP14*%
X53604000Y80484000D03*
%TD*%
%TO.C,TP7*%
X4836000Y68292000D03*
%TD*%
D16*
%TO.C,U3*%
X19060000Y84040000D03*
D17*
X19060000Y81500000D03*
X19060000Y78960000D03*
X19060000Y76420000D03*
X26680000Y76420000D03*
X26680000Y78960000D03*
X26680000Y81500000D03*
X26680000Y84040000D03*
%TD*%
D21*
%TO.C,DS2*%
X62380005Y51020000D03*
D22*
X64920005Y51020000D03*
X67460005Y51020000D03*
X70000005Y51020000D03*
X72540005Y51020000D03*
X75080005Y51020000D03*
X77620005Y51020000D03*
X77620005Y66260000D03*
X75080005Y66260000D03*
X72540005Y66260000D03*
X70000005Y66260000D03*
X67460005Y66260000D03*
X64920005Y66260000D03*
X62380005Y66260000D03*
%TD*%
D23*
%TO.C,BT1*%
X16519984Y70253686D03*
D12*
X16519984Y49763686D03*
%TD*%
D24*
%TO.C,J1*%
X122550800Y7350000D03*
X122550800Y13350000D03*
D25*
X127250800Y10350000D03*
%TD*%
M02*
